<svg xmlns="http://www.w3.org/2000/svg" xmlns:xlink="http://www.w3.org/1999/xlink" width="809.024" height="766.994" viewBox="0 0 809.024 766.994">
  <defs>
    <linearGradient id="linear-gradient" x1="0.907" y1="1.512" x2="0.355" y2="-3.91" gradientUnits="objectBoundingBox">
      <stop offset="0" stop-color="#00ffa3"/>
      <stop offset="1" stop-color="#dc1fff"/>
    </linearGradient>
    <linearGradient id="linear-gradient-2" x1="0.666" y1="5.175" x2="0.114" y2="-0.247" xlink:href="#linear-gradient"/>
    <linearGradient id="linear-gradient-3" x1="0.786" y1="3.356" x2="0.234" y2="-2.067" xlink:href="#linear-gradient"/>
  </defs>
  <g id="currencies" transform="translate(-1065.049 -378.294)">
    <path id="Path_1635" data-name="Path 1635" d="M32.456,1.909A6.536,6.536,0,0,1,37.077,0H196.494a3.265,3.265,0,0,1,2.31,5.575L167.313,37.067a6.536,6.536,0,0,1-4.621,1.909H3.275A3.265,3.265,0,0,1,.964,33.4Z" transform="translate(1454.027 791.805) rotate(-25)" opacity="0.5" fill="url(#linear-gradient)"/>
    <path id="Path_1636" data-name="Path 1636" d="M32.456,1.909A6.716,6.716,0,0,1,37.077,0H196.494a3.265,3.265,0,0,1,2.31,5.575L167.313,37.067a6.536,6.536,0,0,1-4.621,1.909H3.275A3.265,3.265,0,0,1,.964,33.4Z" transform="translate(1404.336 685.242) rotate(-25)" opacity="0.5" fill="url(#linear-gradient-2)"/>
    <path id="Path_1637" data-name="Path 1637" d="M167.313,1.909A6.536,6.536,0,0,0,162.692,0H3.275A3.265,3.265,0,0,0,.964,5.575L32.456,37.067a6.536,6.536,0,0,0,4.621,1.909H196.494A3.265,3.265,0,0,0,198.8,33.4Z" transform="translate(1429.022 738.182) rotate(-25)" opacity="0.5" fill="url(#linear-gradient-3)"/>
    <path id="Path_1647" data-name="Path 1647" d="M117.721,41.811a10.343,10.343,0,0,0-9.742,0l-22.732,13.4L69.821,63.731l-22.326,13.4a10.343,10.343,0,0,1-9.742,0L20.3,66.573a9.9,9.9,0,0,1-4.871-8.525v-20.3A10.012,10.012,0,0,1,20.3,29.227L37.752,19.079a10.343,10.343,0,0,1,9.742,0L64.949,29.633a9.9,9.9,0,0,1,4.871,8.525v13.4l15.425-8.931v-13.8A10.012,10.012,0,0,0,80.375,20.3L47.9,1.218a10.343,10.343,0,0,0-9.742,0L4.871,20.7A8.929,8.929,0,0,0,0,28.821V66.979A10.012,10.012,0,0,0,4.871,75.5L37.752,94.582a10.343,10.343,0,0,0,9.742,0l22.326-12.99,15.425-8.931,22.326-12.99a10.343,10.343,0,0,1,9.742,0L134.77,69.82a9.9,9.9,0,0,1,4.871,8.525v20.3a10.012,10.012,0,0,1-4.871,8.525l-17.049,10.148a10.343,10.343,0,0,1-9.742,0L90.523,107.166a9.9,9.9,0,0,1-4.871-8.525V85.652L70.226,94.582v13.4A10.012,10.012,0,0,0,75.1,116.5l32.881,19.079a10.343,10.343,0,0,0,9.742,0L150.6,116.5a9.9,9.9,0,0,0,4.871-8.525V69.415A10.012,10.012,0,0,0,150.6,60.89Z" transform="translate(1313.16 761.751) rotate(19)" fill="#8247e5" opacity="0.5"/>
    <path id="Path_108" data-name="Path 108" d="M73.906,0,58.264,8.994,15.641,33.629,0,42.623v85.246l15.641,8.994L58.655,161.5,74.3,170.491,89.938,161.5l42.232-24.635,15.641-8.994V42.623L132.17,33.629,89.547,8.994ZM31.283,109.881V60.61L73.906,35.975,116.528,60.61v49.27L73.906,134.516Z" transform="translate(1247.858 507.215)" fill="#2a5ada" opacity="0.5"/>
    <g id="Group_151" data-name="Group 151" transform="translate(1247.858 507.215)">
      <g id="Group_150" data-name="Group 150">
        <g id="solana-sol-logo" transform="translate(171.547 178.027) rotate(-25)">
          <path id="Path_1635-2" data-name="Path 1635" d="M32.456,1.909A6.536,6.536,0,0,1,37.077,0H196.494a3.265,3.265,0,0,1,2.31,5.575L167.313,37.067a6.536,6.536,0,0,1-4.621,1.909H3.275A3.265,3.265,0,0,1,.964,33.4Z" transform="translate(0 117.579)" fill="url(#linear-gradient)"/>
          <path id="Path_1636-2" data-name="Path 1636" d="M32.456,1.909A6.716,6.716,0,0,1,37.077,0H196.494a3.265,3.265,0,0,1,2.31,5.575L167.313,37.067a6.536,6.536,0,0,1-4.621,1.909H3.275A3.265,3.265,0,0,1,.964,33.4Z" transform="translate(0 0)" fill="url(#linear-gradient-2)"/>
          <path id="Path_1637-2" data-name="Path 1637" d="M167.313,1.909A6.536,6.536,0,0,0,162.692,0H3.275A3.265,3.265,0,0,0,.964,5.575L32.456,37.067a6.536,6.536,0,0,0,4.621,1.909H196.494A3.265,3.265,0,0,0,198.8,33.4Z" transform="translate(0 58.413)" fill="url(#linear-gradient-3)"/>
        </g>
        <g id="polygon-matic-logo" transform="translate(65.301 254.537) rotate(19)">
          <path id="Path_1647-2" data-name="Path 1647" d="M117.721,41.811a10.343,10.343,0,0,0-9.742,0l-22.732,13.4L69.821,63.731l-22.326,13.4a10.343,10.343,0,0,1-9.742,0L20.3,66.573a9.9,9.9,0,0,1-4.871-8.525v-20.3A10.012,10.012,0,0,1,20.3,29.227L37.752,19.079a10.343,10.343,0,0,1,9.742,0L64.949,29.633a9.9,9.9,0,0,1,4.871,8.525v13.4l15.425-8.931v-13.8A10.012,10.012,0,0,0,80.375,20.3L47.9,1.218a10.343,10.343,0,0,0-9.742,0L4.871,20.7A8.929,8.929,0,0,0,0,28.821V66.979A10.012,10.012,0,0,0,4.871,75.5L37.752,94.582a10.343,10.343,0,0,0,9.742,0l22.326-12.99,15.425-8.931,22.326-12.99a10.343,10.343,0,0,1,9.742,0L134.77,69.82a9.9,9.9,0,0,1,4.871,8.525v20.3a10.012,10.012,0,0,1-4.871,8.525l-17.049,10.148a10.343,10.343,0,0,1-9.742,0L90.523,107.166a9.9,9.9,0,0,1-4.871-8.525V85.652L70.226,94.582v13.4A10.012,10.012,0,0,0,75.1,116.5l32.881,19.079a10.343,10.343,0,0,0,9.742,0L150.6,116.5a9.9,9.9,0,0,0,4.871-8.525V69.415A10.012,10.012,0,0,0,150.6,60.89Z" transform="translate(0 0)" fill="#8247e5"/>
        </g>
        <g id="Layer_2" data-name="Layer 2">
          <g id="Layer_1" data-name="Layer 1">
            <path id="Path_108-2" data-name="Path 108" d="M73.906,0,58.264,8.994,15.641,33.629,0,42.623v85.246l15.641,8.994L58.655,161.5,74.3,170.491,89.938,161.5l42.232-24.635,15.641-8.994V42.623L132.17,33.629,89.547,8.994ZM31.283,109.881V60.61L73.906,35.975,116.528,60.61v49.27L73.906,134.516Z" fill="#2a5ada"/>
          </g>
        </g>
      </g>
    </g>
  </g>
</svg>
