<svg xmlns="http://www.w3.org/2000/svg" width="538.668" height="533.141" viewBox="0 0 538.668 533.141">
  <g id="exchanges" transform="translate(-721.535 -659.359)">
    <path id="Path_102" data-name="Path 102" d="M110.335.71l18.52,18.966L82.22,66.312,63.7,47.791Z" transform="translate(954.415 805.475)" fill="#f0b90b" stroke="#f0b90b" stroke-width="1" opacity="0.49"/>
    <path id="Path_103" data-name="Path 103" d="M138.45,63.71l18.52,18.966-74.75,74.75L63.7,138.906Z" transform="translate(954.415 770.59)" fill="#f0b90b" stroke="#f0b90b" stroke-width="1" opacity="0.49"/>
    <path id="Path_104" data-name="Path 104" d="M19.22,126.71l18.52,18.966L19.22,164.2.7,145.676Z" transform="translate(989.3 735.705)" fill="#f0b90b" stroke="#f0b90b" stroke-width="1" opacity="0.49"/>
    <path id="Path_105" data-name="Path 105" d="M201.45,126.71l18.52,18.966-74.75,74.75-18.52-18.52Z" transform="translate(919.53 735.705)" fill="#f0b90b" stroke="#f0b90b" stroke-width="1" opacity="0.49"/>
    <path id="Path_1638" data-name="Path 1638" d="M65.608,43.97c-1.646-.235-1.725-.314-.941-.392a25.86,25.86,0,0,1,7.369.627c5.644,1.333,10.74,4.782,16.149,10.818L89.6,56.67l2.038-.314a43.711,43.711,0,0,1,25.085,3.136,32.5,32.5,0,0,1,5.644,3.292,7.577,7.577,0,0,1,.549,2.195c.549,3.684.314,6.428-.862,8.545a2.294,2.294,0,0,0-.235,2.509,2.361,2.361,0,0,0,2.117,1.333c1.881,0,3.841-2.979,4.782-7.134l.392-1.646.706.784c4,4.468,7.134,10.661,7.6,15.051l.157,1.176-.706-1.019a13.236,13.236,0,0,0-3.763-4c-2.665-1.8-5.487-2.352-12.935-2.744-6.742-.392-10.583-.941-14.346-2.195C99.394,73.524,96.1,70.78,88.5,60.667a72.052,72.052,0,0,0-7.6-8.937A26.592,26.592,0,0,0,65.608,43.97Z" transform="translate(883.176 911.1)" fill="#ff007a" opacity="0.49"/>
    <path id="Path_1639" data-name="Path 1639" d="M137.582,54.574a16.952,16.952,0,0,1,1.411-6.742A5.4,5.4,0,0,1,139.7,46.5c.078,0-.078.549-.314,1.176a14.973,14.973,0,0,0-.314,6.9c.549,3.528.784,4,4.547,7.839,1.725,1.8,3.763,4.076,4.547,5.017l1.333,1.725L148.164,67.9a47.718,47.718,0,0,0-6.271-4.939c-.549-.314-.627-.314-1.019.078-.314.314-.392.784-.392,3.057a16.794,16.794,0,0,1-1.725,8c-.627,1.176-.706.941-.157-.392.392-1.019.47-1.489.47-4.86,0-6.82-.784-8.466-5.566-11.21-1.176-.706-3.214-1.725-4.39-2.273A17.36,17.36,0,0,1,127,54.339a35.028,35.028,0,0,1,6.585,1.96c2.744,1.1,3.214,1.176,3.528,1.1C137.346,57.161,137.5,56.534,137.582,54.574Z" transform="translate(869.604 910.452)" fill="#ff007a" opacity="0.49"/>
    <path id="Path_1640" data-name="Path 1640" d="M68.721,66.6c-3.292-4.547-5.409-11.6-4.939-16.854l.157-1.646.784.157a18.4,18.4,0,0,1,5.017,1.881c3.136,1.881,4.547,4.468,5.879,10.9.392,1.881.941,4.076,1.176,4.782a28.3,28.3,0,0,0,3.136,5.644c.862,1.254.314,1.881-1.646,1.725C75.305,72.872,71.308,70.128,68.721,66.6Z" transform="translate(883.277 910.106)" fill="#ff007a" opacity="0.49"/>
    <path id="Path_1641" data-name="Path 1641" d="M129.609,108.782C114.087,102.511,108.6,97.1,108.6,87.93c0-1.333.078-2.43.078-2.43a14.726,14.726,0,0,1,1.333,1.019c3.136,2.509,6.663,3.606,16.462,5.017a68.279,68.279,0,0,1,11.994,2.509c9.485,3.136,15.365,9.564,16.776,18.265a31.705,31.705,0,0,1-.47,9.8c-.549,1.96-2.117,5.566-2.509,5.644-.078,0-.235-.392-.235-1.019a12.756,12.756,0,0,0-4.547-8.858C144.19,115.053,139.956,112.937,129.609,108.782Z" transform="translate(873.578 902.024)" fill="#ff007a" opacity="0.49"/>
    <path id="Path_1642" data-name="Path 1642" d="M112.214,117.268a18.569,18.569,0,0,0-.784-3.292l-.392-1.176.706.862a13.8,13.8,0,0,1,2.509,4.547c.549,1.489.549,1.96.549,4.39a10,10,0,0,1-.549,4.233,14.185,14.185,0,0,1-3.292,5.252c-2.822,2.9-6.506,4.468-11.759,5.174-.941.078-3.606.314-5.958.47-5.879.314-9.8.941-13.326,2.195-.47.157-.941.314-1.019.235-.157-.157,2.273-1.568,4.233-2.509,2.744-1.333,5.566-2.038,11.759-3.136a53.709,53.709,0,0,0,6.977-1.411C109.627,130.673,113.468,124.637,112.214,117.268Z" transform="translate(879.998 896.125)" fill="#ff007a" opacity="0.49"/>
    <path id="Path_1643" data-name="Path 1643" d="M129.952,130.883a18.3,18.3,0,0,1-1.411-12.7c.157-.392.314-.784.47-.784a3.372,3.372,0,0,1,1.1.549c.941.627,2.9,1.725,7.917,4.468,6.35,3.449,9.956,6.115,12.464,9.172a19.388,19.388,0,0,1,4.155,9.485,31.094,31.094,0,0,1-.392,9.329,23.107,23.107,0,0,1-11.367,15.051,10.9,10.9,0,0,1-1.646.784,6.234,6.234,0,0,1,.706-1.725,15.559,15.559,0,0,0,.706-12.151c-.862-2.665-2.665-5.879-6.271-11.288C132.069,134.8,131.05,133.157,129.952,130.883Z" transform="translate(869.394 895.131)" fill="#ff007a" opacity="0.49"/>
    <path id="Path_1644" data-name="Path 1644" d="M55.546,162.533a42.614,42.614,0,0,1,19.519-9.407,29.047,29.047,0,0,1,10.112.392c4.155,1.1,7.917,3.449,9.877,6.35,1.881,2.822,2.744,5.252,3.606,10.661.314,2.117.706,4.311.784,4.782a10.521,10.521,0,0,0,3.449,6.193c2.43,1.8,6.663,1.881,10.818.314a5.267,5.267,0,0,1,1.333-.392c.157.157-1.96,1.568-3.371,2.273a11.1,11.1,0,0,1-5.644,1.333c-3.763,0-6.977-1.96-9.564-5.879a44.071,44.071,0,0,1-2.587-5.174c-2.744-6.35-4.155-8.231-7.369-10.348a9.659,9.659,0,0,0-9.172-.862A5.9,5.9,0,0,0,75.3,171.94a8.015,8.015,0,0,0,4.468,2.352,4.782,4.782,0,0,0,5.409-4.782,3.753,3.753,0,0,0-2.587-3.841c-2.509-1.1-5.252.157-5.174,2.587a2.156,2.156,0,0,0,1.489,2.117c.627.314.627.314.157.235-2.273-.47-2.822-3.292-1.019-5.1,2.195-2.195,6.82-1.254,8.388,1.8a8.213,8.213,0,0,1,.157,5.331,7.331,7.331,0,0,1-8.937,4.233c-2.587-.706-3.684-1.411-6.82-4.625-5.487-5.644-7.6-6.742-15.443-7.918L53.9,164.1Z" transform="translate(885.398 887.469)" fill="#ff007a" opacity="0.49"/>
    <path id="Path_1645" data-name="Path 1645" d="M2.664,3.371C20.929,25.555,49.072,60.048,50.483,61.929c1.176,1.568.706,3.057-1.254,4.155a12,12,0,0,1-4.468,1.254A5.657,5.657,0,0,1,41,65.692c-.706-.706-3.763-5.174-10.661-15.913-5.252-8.231-9.72-15.051-9.8-15.129-.314-.157-.314-.157,9.25,16.932,6.036,10.74,8,14.581,8,15.051,0,1.019-.314,1.568-1.568,2.979-2.117,2.352-3.057,5.017-3.763,10.583-.784,6.193-2.9,10.583-8.937,18.03-3.528,4.39-4.076,5.174-4.939,6.977a13.257,13.257,0,0,0-1.568,6.271,19.613,19.613,0,0,0,1.019,7.682,26.186,26.186,0,0,0,3.763,7.369c1.8,2.822,2.9,4.939,2.9,5.723,0,.627.157.627,2.979,0,6.742-1.568,12.307-4.233,15.365-7.526a7.093,7.093,0,0,0,2.352-5.958,6.393,6.393,0,0,0-.549-3.292c-.784-1.725-2.273-3.136-5.487-5.331-4.233-2.9-6.036-5.252-6.506-8.388-.392-2.665.078-4.468,2.43-9.407,2.43-5.1,3.057-7.212,3.449-12.386.235-3.292.627-4.625,1.568-5.644,1.019-1.1,1.881-1.489,4.312-1.8,4-.549,6.585-1.568,8.623-3.528a7.368,7.368,0,0,0,2.665-5.723l.078-1.8-1.019-1.1C51.267,56.128.234,0,0,0-.079,0,1.175,1.489,2.664,3.371ZM26.73,114.843a3.236,3.236,0,0,0-1.019-4.312c-1.333-.862-3.371-.47-3.371.706a.8.8,0,0,0,.627.784c.706.392.784.784.235,1.646s-.549,1.646.157,2.195C24.457,116.724,25.946,116.254,26.73,114.843Z" transform="translate(897.047 920.5)" fill="#ff007a" fill-rule="evenodd" opacity="0.49"/>
    <path id="Path_1646" data-name="Path 1646" d="M73.389,93.847a6.959,6.959,0,0,0-4.233,4.625c-.314,1.254-.157,3.528.392,4.233.862,1.1,1.646,1.411,3.841,1.411,4.312,0,8-1.881,8.388-4.155.392-1.881-1.254-4.468-3.528-5.644A7.969,7.969,0,0,0,73.389,93.847Zm5.017,3.92a1.764,1.764,0,0,0-.784-2.665c-2.117-1.333-5.331-.235-5.331,1.8,0,1.019,1.646,2.117,3.214,2.117A4.33,4.33,0,0,0,78.406,97.767Z" transform="translate(882.137 900.262)" fill="#ff007a" fill-rule="evenodd" opacity="0.49"/>
    <path id="Path_1648" data-name="Path 1648" d="M565.3.008q49.954-.015,99.914,0,.015,16.147,0,32.289-49.955.015-99.914,0Q565.287,16.149,565.3.008Z" transform="translate(315.613 779.359)" fill="#02a6c2" opacity="0.49"/>
    <path id="Path_1649" data-name="Path 1649" d="M.042,637.542q16.116-.084,32.238,0,.084,16.116,0,32.238-16.121.083-32.238,0Q-.042,653.664.042,637.542Z" transform="translate(841.535 186.261)" fill="#5fcade" opacity="0.49"/>
    <path id="Path_1650" data-name="Path 1650" d="M565.268,637.588q36.056-.077,72.107,0,.077,16.116,0,32.238-36.055.075-72.107,0Q565.192,653.71,565.268,637.588Z" transform="translate(315.674 186.215)" fill="#5fcade" opacity="0.49"/>
    <path id="Path_1651" data-name="Path 1651" d="M565.139,1275.062q16.089-.175,32.173,0,.167,16.079,0,32.173-16.089.159-32.172-.006Q564.977,1291.153,565.139,1275.062Z" transform="translate(315.832 -406.814)" fill="#abebf4" opacity="0.49"/>
    <g id="Group_148" data-name="Group 148">
      <g id="Layer_2" data-name="Layer 2" transform="translate(989.3 805.475)">
        <g id="Layer_1" data-name="Layer 1" transform="translate(0.7 0.71)">
          <path id="Path_102-2" data-name="Path 102" d="M110.335.71l18.52,18.966L82.22,66.312,63.7,47.791Z" transform="translate(-35.585 -0.71)" fill="#f0b90b" stroke="#f0b90b" stroke-width="1"/>
          <path id="Path_103-2" data-name="Path 103" d="M138.45,63.71l18.52,18.966-74.75,74.75L63.7,138.906Z" transform="translate(-35.585 -35.595)" fill="#f0b90b" stroke="#f0b90b" stroke-width="1"/>
          <path id="Path_104-2" data-name="Path 104" d="M19.22,126.71l18.52,18.966L19.22,164.2.7,145.676Z" transform="translate(-0.7 -70.48)" fill="#f0b90b" stroke="#f0b90b" stroke-width="1"/>
          <path id="Path_105-2" data-name="Path 105" d="M201.45,126.71l18.52,18.966-74.75,74.75-18.52-18.52Z" transform="translate(-70.47 -70.48)" fill="#f0b90b" stroke="#f0b90b" stroke-width="1"/>
        </g>
      </g>
      <g id="uniswap-uni-logo" transform="translate(897.047 920.5)">
        <path id="Path_1638-2" data-name="Path 1638" d="M65.608,43.97c-1.646-.235-1.725-.314-.941-.392a25.86,25.86,0,0,1,7.369.627c5.644,1.333,10.74,4.782,16.149,10.818L89.6,56.67l2.038-.314a43.711,43.711,0,0,1,25.085,3.136,32.5,32.5,0,0,1,5.644,3.292,7.577,7.577,0,0,1,.549,2.195c.549,3.684.314,6.428-.862,8.545a2.294,2.294,0,0,0-.235,2.509,2.361,2.361,0,0,0,2.117,1.333c1.881,0,3.841-2.979,4.782-7.134l.392-1.646.706.784c4,4.468,7.134,10.661,7.6,15.051l.157,1.176-.706-1.019a13.236,13.236,0,0,0-3.763-4c-2.665-1.8-5.487-2.352-12.935-2.744-6.742-.392-10.583-.941-14.346-2.195C99.394,73.524,96.1,70.78,88.5,60.667a72.052,72.052,0,0,0-7.6-8.937A26.592,26.592,0,0,0,65.608,43.97Z" transform="translate(-13.871 -9.4)" fill="#ff007a"/>
        <path id="Path_1639-2" data-name="Path 1639" d="M137.582,54.574a16.952,16.952,0,0,1,1.411-6.742A5.4,5.4,0,0,1,139.7,46.5c.078,0-.078.549-.314,1.176a14.973,14.973,0,0,0-.314,6.9c.549,3.528.784,4,4.547,7.839,1.725,1.8,3.763,4.076,4.547,5.017l1.333,1.725L148.164,67.9a47.718,47.718,0,0,0-6.271-4.939c-.549-.314-.627-.314-1.019.078-.314.314-.392.784-.392,3.057a16.794,16.794,0,0,1-1.725,8c-.627,1.176-.706.941-.157-.392.392-1.019.47-1.489.47-4.86,0-6.82-.784-8.466-5.566-11.21-1.176-.706-3.214-1.725-4.39-2.273A17.36,17.36,0,0,1,127,54.339a35.028,35.028,0,0,1,6.585,1.96c2.744,1.1,3.214,1.176,3.528,1.1C137.346,57.161,137.5,56.534,137.582,54.574Z" transform="translate(-27.443 -10.048)" fill="#ff007a"/>
        <path id="Path_1640-2" data-name="Path 1640" d="M68.721,66.6c-3.292-4.547-5.409-11.6-4.939-16.854l.157-1.646.784.157a18.4,18.4,0,0,1,5.017,1.881c3.136,1.881,4.547,4.468,5.879,10.9.392,1.881.941,4.076,1.176,4.782a28.3,28.3,0,0,0,3.136,5.644c.862,1.254.314,1.881-1.646,1.725C75.305,72.872,71.308,70.128,68.721,66.6Z" transform="translate(-13.77 -10.394)" fill="#ff007a"/>
        <path id="Path_1641-2" data-name="Path 1641" d="M129.609,108.782C114.087,102.511,108.6,97.1,108.6,87.93c0-1.333.078-2.43.078-2.43a14.726,14.726,0,0,1,1.333,1.019c3.136,2.509,6.663,3.606,16.462,5.017a68.279,68.279,0,0,1,11.994,2.509c9.485,3.136,15.365,9.564,16.776,18.265a31.705,31.705,0,0,1-.47,9.8c-.549,1.96-2.117,5.566-2.509,5.644-.078,0-.235-.392-.235-1.019a12.756,12.756,0,0,0-4.547-8.858C144.19,115.053,139.956,112.937,129.609,108.782Z" transform="translate(-23.468 -18.476)" fill="#ff007a"/>
        <path id="Path_1642-2" data-name="Path 1642" d="M112.214,117.268a18.569,18.569,0,0,0-.784-3.292l-.392-1.176.706.862a13.8,13.8,0,0,1,2.509,4.547c.549,1.489.549,1.96.549,4.39a10,10,0,0,1-.549,4.233,14.185,14.185,0,0,1-3.292,5.252c-2.822,2.9-6.506,4.468-11.759,5.174-.941.078-3.606.314-5.958.47-5.879.314-9.8.941-13.326,2.195-.47.157-.941.314-1.019.235-.157-.157,2.273-1.568,4.233-2.509,2.744-1.333,5.566-2.038,11.759-3.136a53.709,53.709,0,0,0,6.977-1.411C109.627,130.673,113.468,124.637,112.214,117.268Z" transform="translate(-17.048 -24.375)" fill="#ff007a"/>
        <path id="Path_1643-2" data-name="Path 1643" d="M129.952,130.883a18.3,18.3,0,0,1-1.411-12.7c.157-.392.314-.784.47-.784a3.372,3.372,0,0,1,1.1.549c.941.627,2.9,1.725,7.917,4.468,6.35,3.449,9.956,6.115,12.464,9.172a19.388,19.388,0,0,1,4.155,9.485,31.094,31.094,0,0,1-.392,9.329,23.107,23.107,0,0,1-11.367,15.051,10.9,10.9,0,0,1-1.646.784,6.234,6.234,0,0,1,.706-1.725,15.559,15.559,0,0,0,.706-12.151c-.862-2.665-2.665-5.879-6.271-11.288C132.069,134.8,131.05,133.157,129.952,130.883Z" transform="translate(-27.653 -25.369)" fill="#ff007a"/>
        <path id="Path_1644-2" data-name="Path 1644" d="M55.546,162.533a42.614,42.614,0,0,1,19.519-9.407,29.047,29.047,0,0,1,10.112.392c4.155,1.1,7.917,3.449,9.877,6.35,1.881,2.822,2.744,5.252,3.606,10.661.314,2.117.706,4.311.784,4.782a10.521,10.521,0,0,0,3.449,6.193c2.43,1.8,6.663,1.881,10.818.314a5.267,5.267,0,0,1,1.333-.392c.157.157-1.96,1.568-3.371,2.273a11.1,11.1,0,0,1-5.644,1.333c-3.763,0-6.977-1.96-9.564-5.879a44.071,44.071,0,0,1-2.587-5.174c-2.744-6.35-4.155-8.231-7.369-10.348a9.659,9.659,0,0,0-9.172-.862A5.9,5.9,0,0,0,75.3,171.94a8.015,8.015,0,0,0,4.468,2.352,4.782,4.782,0,0,0,5.409-4.782,3.753,3.753,0,0,0-2.587-3.841c-2.509-1.1-5.252.157-5.174,2.587a2.156,2.156,0,0,0,1.489,2.117c.627.314.627.314.157.235-2.273-.47-2.822-3.292-1.019-5.1,2.195-2.195,6.82-1.254,8.388,1.8a8.213,8.213,0,0,1,.157,5.331,7.331,7.331,0,0,1-8.937,4.233c-2.587-.706-3.684-1.411-6.82-4.625-5.487-5.644-7.6-6.742-15.443-7.918L53.9,164.1Z" transform="translate(-11.648 -33.031)" fill="#ff007a"/>
        <path id="Path_1645-2" data-name="Path 1645" d="M2.664,3.371C20.929,25.555,49.072,60.048,50.483,61.929c1.176,1.568.706,3.057-1.254,4.155a12,12,0,0,1-4.468,1.254A5.657,5.657,0,0,1,41,65.692c-.706-.706-3.763-5.174-10.661-15.913-5.252-8.231-9.72-15.051-9.8-15.129-.314-.157-.314-.157,9.25,16.932,6.036,10.74,8,14.581,8,15.051,0,1.019-.314,1.568-1.568,2.979-2.117,2.352-3.057,5.017-3.763,10.583-.784,6.193-2.9,10.583-8.937,18.03-3.528,4.39-4.076,5.174-4.939,6.977a13.257,13.257,0,0,0-1.568,6.271,19.613,19.613,0,0,0,1.019,7.682,26.186,26.186,0,0,0,3.763,7.369c1.8,2.822,2.9,4.939,2.9,5.723,0,.627.157.627,2.979,0,6.742-1.568,12.307-4.233,15.365-7.526a7.093,7.093,0,0,0,2.352-5.958,6.393,6.393,0,0,0-.549-3.292c-.784-1.725-2.273-3.136-5.487-5.331-4.233-2.9-6.036-5.252-6.506-8.388-.392-2.665.078-4.468,2.43-9.407,2.43-5.1,3.057-7.212,3.449-12.386.235-3.292.627-4.625,1.568-5.644,1.019-1.1,1.881-1.489,4.312-1.8,4-.549,6.585-1.568,8.623-3.528a7.368,7.368,0,0,0,2.665-5.723l.078-1.8-1.019-1.1C51.267,56.128.234,0,0,0-.079,0,1.175,1.489,2.664,3.371ZM26.73,114.843a3.236,3.236,0,0,0-1.019-4.312c-1.333-.862-3.371-.47-3.371.706a.8.8,0,0,0,.627.784c.706.392.784.784.235,1.646s-.549,1.646.157,2.195C24.457,116.724,25.946,116.254,26.73,114.843Z" transform="translate(0)" fill="#ff007a" fill-rule="evenodd"/>
        <path id="Path_1646-2" data-name="Path 1646" d="M73.389,93.847a6.959,6.959,0,0,0-4.233,4.625c-.314,1.254-.157,3.528.392,4.233.862,1.1,1.646,1.411,3.841,1.411,4.312,0,8-1.881,8.388-4.155.392-1.881-1.254-4.468-3.528-5.644A7.969,7.969,0,0,0,73.389,93.847Zm5.017,3.92a1.764,1.764,0,0,0-.784-2.665c-2.117-1.333-5.331-.235-5.331,1.8,0,1.019,1.646,2.117,3.214,2.117A4.33,4.33,0,0,0,78.406,97.767Z" transform="translate(-14.91 -20.238)" fill="#ff007a" fill-rule="evenodd"/>
      </g>
      <g id="Layer_2-2" data-name="Layer 2" transform="translate(841.535 779.359)">
        <g id="Layer_1-2" data-name="Layer 1" transform="translate(0 0)">
          <path id="Path_1648-2" data-name="Path 1648" d="M565.3.008q49.954-.015,99.914,0,.015,16.147,0,32.289-49.955.015-99.914,0Q565.287,16.149,565.3.008Z" transform="translate(-525.922 0)" fill="#02a6c2"/>
          <path id="Path_1649-2" data-name="Path 1649" d="M.042,637.542q16.116-.084,32.238,0,.084,16.116,0,32.238-16.121.083-32.238,0Q-.042,653.664.042,637.542Z" transform="translate(0 -593.098)" fill="#5fcade"/>
          <path id="Path_1650-2" data-name="Path 1650" d="M565.268,637.588q36.056-.077,72.107,0,.077,16.116,0,32.238-36.055.075-72.107,0Q565.192,653.71,565.268,637.588Z" transform="translate(-525.861 -593.144)" fill="#5fcade"/>
          <path id="Path_1651-2" data-name="Path 1651" d="M565.139,1275.062q16.089-.175,32.173,0,.167,16.079,0,32.173-16.089.159-32.172-.006Q564.977,1291.153,565.139,1275.062Z" transform="translate(-525.703 -1186.172)" fill="#abebf4"/>
        </g>
      </g>
    </g>
  </g>
</svg>
