<svg xmlns="http://www.w3.org/2000/svg" width="24.039" height="24.039" viewBox="0 0 24.039 24.039">
  <path id="website" d="M16.02,28.039a11.779,11.779,0,0,1-4.718-.947,12.138,12.138,0,0,1-3.816-2.569,11.889,11.889,0,0,1-2.554-3.831A12.052,12.052,0,0,1,4,15.959a11.834,11.834,0,0,1,.932-4.7,11.976,11.976,0,0,1,2.554-3.8A11.731,11.731,0,0,1,11.3,4.916,12.113,12.113,0,0,1,16.02,4a12.113,12.113,0,0,1,4.718.916,11.731,11.731,0,0,1,3.816,2.539,11.976,11.976,0,0,1,2.554,3.8,11.834,11.834,0,0,1,.932,4.7,12.052,12.052,0,0,1-.932,4.733,11.889,11.889,0,0,1-2.554,3.831,12.138,12.138,0,0,1-3.816,2.569A11.779,11.779,0,0,1,16.02,28.039Zm0-1.743a10,10,0,0,0,1.758-2.479,14.925,14.925,0,0,0,1.157-3.32h-5.8a15.239,15.239,0,0,0,1.127,3.245A10.24,10.24,0,0,0,16.02,26.3Zm-2.554-.361a14.366,14.366,0,0,1-1.292-2.464,18,18,0,0,1-.9-2.975H6.764a10.777,10.777,0,0,0,2.644,3.35A13.2,13.2,0,0,0,13.465,25.936Zm5.138-.03A12.031,12.031,0,0,0,22.5,23.832a10.762,10.762,0,0,0,2.78-3.335H20.8a21.768,21.768,0,0,1-.916,2.945A13.64,13.64,0,0,1,18.6,25.906ZM6.164,18.694h4.778q-.09-.811-.105-1.457t-.015-1.277q0-.751.03-1.337t.12-1.307H6.164a8.762,8.762,0,0,0-.285,1.292A10.53,10.53,0,0,0,5.8,15.959a11.643,11.643,0,0,0,.075,1.4,8.47,8.47,0,0,0,.285,1.337Zm6.641,0h6.46q.12-.932.15-1.517t.03-1.217q0-.6-.03-1.157t-.15-1.487H12.8q-.12.932-.15,1.487t-.03,1.157q0,.631.03,1.217t.15,1.517Zm8.263,0h4.808a8.47,8.47,0,0,0,.285-1.337,11.643,11.643,0,0,0,.075-1.4,10.531,10.531,0,0,0-.075-1.352,8.762,8.762,0,0,0-.285-1.292H21.1q.09,1.052.12,1.608t.03,1.037q0,.661-.045,1.247t-.135,1.487Zm-.3-7.182h4.507a9.736,9.736,0,0,0-2.719-3.456A10.362,10.362,0,0,0,18.574,6.1a13.1,13.1,0,0,1,1.277,2.4A19.543,19.543,0,0,1,20.767,11.512Zm-7.632,0h5.829a11.72,11.72,0,0,0-1.112-3.08A12.293,12.293,0,0,0,16.02,5.8,6.608,6.608,0,0,0,14.4,7.936a19.4,19.4,0,0,0-1.262,3.576Zm-6.37,0H11.3a16.914,16.914,0,0,1,.841-2.9,14.266,14.266,0,0,1,1.292-2.479,9.913,9.913,0,0,0-6.671,5.379Z" transform="translate(-4 -4)" fill="#fff"/>
</svg>
