<svg xmlns="http://www.w3.org/2000/svg" width="24" height="24" viewBox="0 0 24 24">
  <path id="currencies" d="M24,3.75c0,.844-.67,1.622-1.8,2.25a14.313,14.313,0,0,1-5.733,1.448c-.173-.084-.347-.164-.53-.234A18.5,18.5,0,0,0,9,6c-.389,0-.769.009-1.148.028L7.8,6C6.67,5.372,6,4.594,6,3.75,6,1.678,10.031,0,15,0S24,1.678,24,3.75ZM7.533,7.552C8.011,7.519,8.5,7.5,9,7.5a15.7,15.7,0,0,1,7.148,1.472C17.311,9.6,18,10.392,18,11.25a1.575,1.575,0,0,1-.1.548,3.4,3.4,0,0,1-1.641,1.664h0s-.014,0-.019.009h0c-.014.009-.028.014-.042.023A15.626,15.626,0,0,1,9,15a16.125,16.125,0,0,1-6.947-1.364c-.089-.042-.173-.089-.258-.136C.67,12.872,0,12.094,0,11.25,0,9.619,2.5,8.227,6,7.716,6.492,7.645,7,7.589,7.533,7.552ZM19.5,11.25a3.539,3.539,0,0,0-1.13-2.5,15.776,15.776,0,0,0,3.572-.961A8.117,8.117,0,0,0,24,6.591V8.25c0,.9-.773,1.739-2.053,2.386a11.355,11.355,0,0,1-2.456.867c0-.084.009-.164.009-.248ZM18,15.75c0,.844-.67,1.622-1.8,2.25-.084.047-.169.089-.258.136A16.087,16.087,0,0,1,9,19.5,15.626,15.626,0,0,1,1.8,18C.67,17.372,0,16.594,0,15.75V14.091a8.2,8.2,0,0,0,2.058,1.2A18.547,18.547,0,0,0,9,16.5a18.547,18.547,0,0,0,6.942-1.214,9.463,9.463,0,0,0,1.05-.511,7.446,7.446,0,0,0,.806-.525c.07-.052.136-.108.2-.159V15.75Zm1.5,0V13.036a14.528,14.528,0,0,0,2.442-.75A8.118,8.118,0,0,0,24,11.091V12.75a2.072,2.072,0,0,1-.7,1.448A8.209,8.209,0,0,1,19.491,16C19.5,15.919,19.5,15.834,19.5,15.75ZM9,21a18.547,18.547,0,0,0,6.942-1.214A8.117,8.117,0,0,0,18,18.591V20.25C18,22.322,13.969,24,9,24s-9-1.678-9-3.75V18.591a8.2,8.2,0,0,0,2.058,1.2A18.547,18.547,0,0,0,9,21Z" fill="#b0abb6"/>
</svg>
