<svg xmlns="http://www.w3.org/2000/svg" width="24" height="24" viewBox="0 0 24 24">
  <g id="exchanges" transform="translate(-144 -264)">
    <path id="money-bill-transfer-solid" d="M20.066,1.622A.9.9,0,1,1,21.337.35l2.4,2.4a.906.906,0,0,1,0,1.275l-2.4,2.4a.9.9,0,0,1-1.271-1.271l.863-.863L14.4,4.285a.9.9,0,0,1,0-1.8h6.53ZM3.938,14.224l-.863.863H9.6a.9.9,0,0,1,0,1.8H3.072l.863.863a.9.9,0,0,1-1.271,1.271l-2.4-2.4a.906.906,0,0,1,0-1.275l2.4-2.4A.9.9,0,1,1,3.934,14.22ZM3.6,2.485h9.073A1.949,1.949,0,0,0,14.4,5.335h4.4a1.949,1.949,0,0,0,3.274,1.83l.724-.724v8.045a2.4,2.4,0,0,1-2.4,2.4H11.331A1.949,1.949,0,0,0,9.6,14.036H5.2a1.949,1.949,0,0,0-3.274-1.83L1.2,12.93V4.885A2.4,2.4,0,0,1,3.6,2.485ZM6,4.885H3.6v2.4A2.4,2.4,0,0,0,6,4.885Zm14.4,7.2a2.4,2.4,0,0,0-2.4,2.4h2.4Zm-8.4,1.2a3.6,3.6,0,1,0-3.6-3.6A3.6,3.6,0,0,0,12,13.286Z" transform="translate(144 266.913)" fill="#b0abb6"/>
    <rect id="Rectangle_76" data-name="Rectangle 76" width="24" height="24" transform="translate(144 264)" fill="none"/>
  </g>
</svg>
