<svg xmlns="http://www.w3.org/2000/svg" width="24" height="24" viewBox="0 0 24 24">
  <g id="newsActive" transform="translate(-102 -234)">
    <path id="newspaper-solid" d="M4.5,35a3,3,0,0,1,3-3H21a3,3,0,0,1,3,3V50a3,3,0,0,1-3,3H3.75A3.749,3.749,0,0,1,0,49.25V36.5a1.5,1.5,0,1,1,3,0V49.25a.75.75,0,1,0,1.5,0Zm3,1.125v3.75A1.122,1.122,0,0,0,8.625,41h11.25A1.122,1.122,0,0,0,21,39.875v-3.75A1.122,1.122,0,0,0,19.875,35H8.625A1.122,1.122,0,0,0,7.5,36.125Zm0,8.625a.752.752,0,0,0,.75.75h4.5a.75.75,0,0,0,0-1.5H8.25A.752.752,0,0,0,7.5,44.75Zm7.5,0a.752.752,0,0,0,.75.75h4.5a.75.75,0,0,0,0-1.5h-4.5A.752.752,0,0,0,15,44.75Zm-7.5,4.5a.752.752,0,0,0,.75.75h4.5a.75.75,0,1,0,0-1.5H8.25A.752.752,0,0,0,7.5,49.25Zm7.5,0a.752.752,0,0,0,.75.75h4.5a.75.75,0,1,0,0-1.5h-4.5A.752.752,0,0,0,15,49.25Z" transform="translate(102 203)" fill="#8318fa"/>
    <rect id="Rectangle_75" data-name="Rectangle 75" width="24" height="24" transform="translate(102 234)" fill="none"/>
  </g>
</svg>
